# xmcd CD database file
#
# Track frame offsets:
#	150
#	16612
#	29152
#	49553
#	67403
#
# Disc length: 1086 seconds
#
# Revision: 0
# Processed by: cddbd v1.5PL3 Copyright (c) Steve Scherf et al.
# Submitted via: CDex 1.50
#
DISCID=3f043c05
DTITLE=THE MODS - NO EXCUSE!
DYEAR=2003
DGENRE=Rock
TTITLE0=FIGHT OR FLIGHT
TTITLE1=SWITCHBLADE JACK
TTITLE2=HOWLING DRIVE
TTITLE3=ONE MORE TRY
TTITLE4=壊れたエンジン
EXTD=YEAR: 2003
EXTT0=
EXTT1=
EXTT2=
EXTT3=
EXTT4=
PLAYORDER=
